<svg width="14" height="14" viewBox="0 0 14 14" fill="none" xmlns="http://www.w3.org/2000/svg">
<g clip-path="url(#clip0_31_343)">
<path d="M2.62276 7.1561C2.28221 7.82555 2.66888 8.14555 3.5511 8.69221C4.3011 9.15555 5.33721 9.32499 6.00277 9.39277C5.72999 9.65499 6.97999 8.45277 3.37999 11.9155C2.61665 12.6472 3.84554 13.8211 4.60832 13.105L6.67332 11.1133C7.46388 11.8739 8.22165 12.6028 8.73832 13.1078C9.50165 13.8267 10.73 12.6628 9.97499 11.9183C9.91832 11.8644 7.17665 9.23444 7.34388 9.39555C8.01777 9.32777 9.03832 9.14832 9.77943 8.69499L9.77888 8.69443C10.6611 8.14499 11.0478 7.82555 10.7122 7.1561C10.5094 6.7761 9.96277 6.45832 9.23499 7.00777C9.23499 7.00777 8.25221 7.76055 6.66721 7.76055C5.08165 7.76055 4.09943 7.00777 4.09943 7.00777C3.37221 6.45555 2.82332 6.7761 2.62276 7.1561Z" fill="#1E222E"/>
<path d="M6.6661 6.74556C8.59833 6.74556 10.1761 5.23556 10.1761 3.37667C10.1761 1.51 8.59833 0 6.6661 0C4.73333 0 3.15555 1.51 3.15555 3.37667C3.15555 5.23556 4.73333 6.74556 6.6661 6.74556ZM6.6661 1.71056C7.61555 1.71056 8.38999 2.45556 8.38999 3.37667C8.38999 4.29 7.61555 5.035 6.6661 5.035C5.71666 5.035 4.94221 4.29 4.94221 3.37667C4.94166 2.455 5.7161 1.71056 6.6661 1.71056Z" fill="#1E222E"/>
</g>
<defs>
<clipPath id="clip0_31_343">
<rect width="13.3333" height="13.3333" fill="white"/>
</clipPath>
</defs>
</svg>
