<svg width="15" height="15" viewBox="0 0 15 15" fill="none" xmlns="http://www.w3.org/2000/svg">
<g clip-path="url(#clip0_31_354)">
<path d="M14.7443 2.68214C14.6788 2.06087 14.402 1.48092 13.9602 1.03925C13.5184 0.597592 12.9383 0.320998 12.317 0.255722C9.11596 -0.0874785 5.88739 -0.0874785 2.68633 0.255722C2.06442 0.320263 1.48358 0.596533 1.04107 1.03826C0.59857 1.47999 0.321281 2.06035 0.255649 2.68214C-0.0861115 5.8847 -0.0861115 9.11453 0.255649 12.3171C0.321874 12.9382 0.598886 13.5178 1.04054 13.9595C1.4822 14.4011 2.06184 14.6781 2.68292 14.7444C5.88398 15.0876 9.11255 15.0876 12.3136 14.7444C12.9353 14.6789 13.5157 14.4022 13.9581 13.9605C14.4004 13.5187 14.6779 12.9387 14.7443 12.3171C15.086 9.11453 15.086 5.8847 14.7443 2.68214ZM11.7383 10.1821C11.5201 10.2128 10.4531 10.1821 10.3977 10.1821C10.1212 10.1853 9.85465 10.079 9.65622 9.8864C9.43122 9.66907 9.23008 9.43044 9.0102 9.20459C8.9454 9.13526 8.87499 9.07141 8.79968 9.01368C8.62412 8.87902 8.45025 8.9097 8.36758 9.1168C8.30299 9.3406 8.25793 9.56959 8.23292 9.80118C8.21843 10.01 8.08548 10.1421 7.85025 10.1557C7.70451 10.1642 7.55877 10.1668 7.41474 10.1634C6.88976 10.1598 6.37309 10.0318 5.90707 9.7901C5.40279 9.50938 4.9634 9.12546 4.61758 8.66339C4.04912 7.93726 3.59485 7.13953 3.18917 6.31709C3.16787 6.27532 2.75196 5.39152 2.74173 5.3489C2.70423 5.20998 2.74173 5.07618 2.85679 5.0293C2.93008 5.00118 4.30054 5.0293 4.32355 5.0293C4.42547 5.02874 4.52495 5.06054 4.60765 5.12011C4.69036 5.17969 4.75202 5.26398 4.78377 5.36084C5.03712 6.00952 5.38397 6.61766 5.81332 7.16595C5.87344 7.239 5.94376 7.30301 6.02213 7.35601C6.13377 7.43271 6.23946 7.40629 6.28548 7.27674C6.34009 7.0982 6.37215 6.91353 6.38093 6.72703C6.3886 6.35714 6.38093 6.11424 6.36048 5.74436C6.34684 5.50743 6.26332 5.30032 5.91389 5.23299C5.8065 5.21339 5.79713 5.12476 5.86616 5.03612C6.0102 4.85288 6.20707 4.82305 6.42781 4.81282C6.75679 4.79322 7.08576 4.80601 7.41474 4.81282H7.48633C7.6295 4.8116 7.77238 4.82589 7.91247 4.85544C7.99525 4.87261 8.07033 4.91592 8.12664 4.97899C8.18295 5.04205 8.21752 5.12153 8.22525 5.20572C8.24218 5.29904 8.24932 5.39387 8.24656 5.48868C8.23804 5.8918 8.21843 6.29578 8.21417 6.6989C8.21021 6.85886 8.22479 7.01873 8.25764 7.17532C8.30451 7.39095 8.45196 7.44379 8.59855 7.28868C8.78852 7.0889 8.96262 6.87461 9.11929 6.64777C9.39677 6.2334 9.62556 5.78841 9.8011 5.32163C9.89656 5.08214 9.97156 5.0293 10.2272 5.0293H11.6812C11.7677 5.02778 11.8539 5.03928 11.9369 5.06339C11.9663 5.07112 11.9938 5.08482 12.0176 5.10366C12.0415 5.1225 12.0612 5.14605 12.0755 5.17285C12.0898 5.19966 12.0984 5.22913 12.1008 5.25942C12.1032 5.28971 12.0994 5.32018 12.0895 5.3489C12.0179 5.66851 11.8457 5.93953 11.6633 6.20118C11.3676 6.61964 11.0556 7.02788 10.7531 7.44123C10.7146 7.49581 10.6796 7.55274 10.6483 7.61169C10.5341 7.81708 10.5426 7.93214 10.7079 8.1026C10.9721 8.37447 11.2542 8.62845 11.5091 8.90799C11.696 9.11138 11.8648 9.33068 12.0136 9.56339C12.2003 9.85316 12.0852 10.1293 11.7375 10.1787L11.7383 10.1821Z" fill="#1E222E"/>
</g>
<defs>
<clipPath id="clip0_31_354">
<rect width="15" height="15" fill="white"/>
</clipPath>
</defs>
</svg>
