<svg width="110" height="110" viewBox="0 0 110 110" fill="none" xmlns="http://www.w3.org/2000/svg">
<rect width="110" height="110" rx="8" fill="white"/>
<path d="M23.75 48.7031C23.75 49.4062 23.6589 50.0339 23.4766 50.5859C23.2943 51.138 23.0312 51.6042 22.6875 51.9844C22.3438 52.3646 21.9271 52.6562 21.4375 52.8594C20.9531 53.0573 20.4036 53.1562 19.7891 53.1562C19.2161 53.1562 18.6901 53.0573 18.2109 52.8594C17.737 52.6562 17.3255 52.3646 16.9766 51.9844C16.6328 51.6042 16.3646 51.138 16.1719 50.5859C15.9844 50.0339 15.8906 49.4062 15.8906 48.7031C15.8906 47.7656 16.0495 46.9688 16.3672 46.3125C16.6849 45.651 17.138 45.1484 17.7266 44.8047C18.3203 44.4557 19.026 44.2812 19.8438 44.2812C20.625 44.2812 21.3073 44.4557 21.8906 44.8047C22.4792 45.1536 22.9349 45.6589 23.2578 46.3203C23.5859 46.9766 23.75 47.7708 23.75 48.7031ZM17.2344 48.7031C17.2344 49.3906 17.3255 49.987 17.5078 50.4922C17.6901 50.9974 17.9714 51.388 18.3516 51.6641C18.7318 51.9401 19.2214 52.0781 19.8203 52.0781C20.4141 52.0781 20.901 51.9401 21.2812 51.6641C21.6667 51.388 21.9505 50.9974 22.1328 50.4922C22.3151 49.987 22.4062 49.3906 22.4062 48.7031C22.4062 48.0208 22.3151 47.4323 22.1328 46.9375C21.9505 46.4375 21.6693 46.0521 21.2891 45.7812C20.9089 45.5104 20.4167 45.375 19.8125 45.375C18.9219 45.375 18.2682 45.6693 17.8516 46.2578C17.4401 46.8464 17.2344 47.6615 17.2344 48.7031ZM31.8281 45.5391H29.0078V53H27.7266V45.5391H24.9453V44.4375H31.8281V45.5391Z" fill="#3C52E6"/>
<path d="M84.1172 41.4141C84.8984 41.4141 85.4896 41.7266 85.8906 42.3516C86.2969 42.9714 86.5 43.849 86.5 44.9844C86.5 46.1198 86.3047 47.0052 85.9141 47.6406C85.5234 48.2708 84.9245 48.5859 84.1172 48.5859C83.3672 48.5859 82.7917 48.2708 82.3906 47.6406C81.9948 47.0052 81.7969 46.1198 81.7969 44.9844C81.7969 43.849 81.987 42.9714 82.3672 42.3516C82.7474 41.7266 83.3307 41.4141 84.1172 41.4141ZM84.1172 42.3438C83.6953 42.3438 83.3854 42.5651 83.1875 43.0078C82.9896 43.4453 82.8906 44.1042 82.8906 44.9844C82.8906 45.8646 82.9896 46.5286 83.1875 46.9766C83.3854 47.4245 83.6953 47.6484 84.1172 47.6484C84.5547 47.6484 84.8802 47.4245 85.0938 46.9766C85.3073 46.5286 85.4141 45.8646 85.4141 44.9844C85.4141 44.1094 85.3073 43.4505 85.0938 43.0078C84.8854 42.5651 84.5599 42.3438 84.1172 42.3438ZM91.3516 41.5781L85.0156 53H83.875L90.2109 41.5781H91.3516ZM91.0469 45.9922C91.8229 45.9922 92.4141 46.3047 92.8203 46.9297C93.2266 47.5495 93.4297 48.4271 93.4297 49.5625C93.4297 50.6927 93.2344 51.5755 92.8438 52.2109C92.4531 52.8411 91.8542 53.1562 91.0469 53.1562C90.2917 53.1562 89.7161 52.8411 89.3203 52.2109C88.9245 51.5755 88.7266 50.6927 88.7266 49.5625C88.7266 48.4271 88.9141 47.5495 89.2891 46.9297C89.6693 46.3047 90.2552 45.9922 91.0469 45.9922ZM91.0469 46.9297C90.625 46.9297 90.3151 47.1484 90.1172 47.5859C89.9193 48.0234 89.8203 48.6823 89.8203 49.5625C89.8203 50.4427 89.9193 51.1068 90.1172 51.5547C90.3151 51.9974 90.625 52.2188 91.0469 52.2188C91.4844 52.2188 91.8099 52 92.0234 51.5625C92.237 51.1198 92.3438 50.4531 92.3438 49.5625C92.3438 48.6875 92.237 48.0312 92.0234 47.5938C91.8151 47.151 91.4896 46.9297 91.0469 46.9297Z" fill="#3C52E6"/>
<path d="M33.3594 66.4375V75H32.0547V67.5547H27.4922V75H26.1875V66.4375H33.3594ZM39.4062 66.2812C40.1354 66.2812 40.7604 66.4427 41.2812 66.7656C41.8021 67.0885 42.2005 67.5417 42.4766 68.125C42.7526 68.7031 42.8906 69.3802 42.8906 70.1562V70.9609H36.9766C36.9922 71.9661 37.2422 72.7318 37.7266 73.2578C38.2109 73.7839 38.8932 74.0469 39.7734 74.0469C40.3151 74.0469 40.7943 73.9974 41.2109 73.8984C41.6276 73.7995 42.0599 73.6536 42.5078 73.4609V74.6016C42.0755 74.7943 41.6458 74.9349 41.2188 75.0234C40.7969 75.112 40.2969 75.1562 39.7188 75.1562C38.8958 75.1562 38.1771 74.9896 37.5625 74.6562C36.9531 74.3177 36.4792 73.8229 36.1406 73.1719C35.8021 72.5208 35.6328 71.724 35.6328 70.7812C35.6328 69.8594 35.7865 69.0625 36.0938 68.3906C36.4062 67.7135 36.8438 67.1927 37.4062 66.8281C37.974 66.4635 38.6406 66.2812 39.4062 66.2812ZM39.3906 67.3438C38.6979 67.3438 38.1458 67.5703 37.7344 68.0234C37.3229 68.4766 37.0781 69.1094 37 69.9219H41.5312C41.526 69.4115 41.4453 68.9635 41.2891 68.5781C41.138 68.1875 40.9062 67.8854 40.5938 67.6719C40.2812 67.4531 39.8802 67.3438 39.3906 67.3438ZM49.1172 66.2812C50.1849 66.2812 51.0365 66.6484 51.6719 67.3828C52.3073 68.1172 52.625 69.2214 52.625 70.6953C52.625 71.6693 52.4792 72.487 52.1875 73.1484C51.8958 73.8099 51.4844 74.3099 50.9531 74.6484C50.4271 74.987 49.8047 75.1562 49.0859 75.1562C48.6328 75.1562 48.2344 75.0964 47.8906 74.9766C47.5469 74.8568 47.2526 74.6953 47.0078 74.4922C46.763 74.2891 46.5599 74.0677 46.3984 73.8281H46.3047C46.3203 74.0312 46.3385 74.276 46.3594 74.5625C46.3854 74.849 46.3984 75.099 46.3984 75.3125V78.8281H45.0938V66.4375H46.1641L46.3359 67.7031H46.3984C46.5651 67.4427 46.7682 67.2057 47.0078 66.9922C47.2474 66.7734 47.5391 66.6016 47.8828 66.4766C48.2318 66.3464 48.6432 66.2812 49.1172 66.2812ZM48.8906 67.375C48.2969 67.375 47.8177 67.4896 47.4531 67.7188C47.0938 67.9479 46.8307 68.2917 46.6641 68.75C46.4974 69.2031 46.4089 69.7734 46.3984 70.4609V70.7109C46.3984 71.4349 46.4766 72.0469 46.6328 72.5469C46.7943 73.0469 47.0573 73.4271 47.4219 73.6875C47.7917 73.9479 48.2865 74.0781 48.9062 74.0781C49.4375 74.0781 49.8802 73.9349 50.2344 73.6484C50.5885 73.362 50.8516 72.9635 51.0234 72.4531C51.2005 71.9375 51.2891 71.3464 51.2891 70.6797C51.2891 69.6693 51.0911 68.8672 50.6953 68.2734C50.3047 67.6745 49.7031 67.375 48.8906 67.375ZM61.6953 68.5859C61.6953 69.1224 61.5391 69.5417 61.2266 69.8438C60.9141 70.1406 60.5104 70.3411 60.0156 70.4453V70.5078C60.5521 70.5807 61.013 70.7734 61.3984 71.0859C61.7891 71.3932 61.9844 71.8646 61.9844 72.5C61.9844 72.9896 61.8672 73.4219 61.6328 73.7969C61.3984 74.1719 61.0312 74.4661 60.5312 74.6797C60.0312 74.8932 59.3802 75 58.5781 75H54.8906V66.4375H58.5469C59.1615 66.4375 59.7031 66.5078 60.1719 66.6484C60.6458 66.7839 61.0182 67.0078 61.2891 67.3203C61.5599 67.6328 61.6953 68.0547 61.6953 68.5859ZM60.6328 72.5C60.6328 71.9948 60.4401 71.6302 60.0547 71.4062C59.6745 71.1823 59.1198 71.0703 58.3906 71.0703H56.1953V73.9453H58.4219C59.1406 73.9453 59.6875 73.8359 60.0625 73.6172C60.4427 73.3932 60.6328 73.0208 60.6328 72.5ZM60.375 68.7344C60.375 68.3281 60.2266 68.026 59.9297 67.8281C59.6328 67.625 59.1458 67.5234 58.4688 67.5234H56.1953V69.9844H58.2422C58.9453 69.9844 59.4766 69.8828 59.8359 69.6797C60.1953 69.4766 60.375 69.1615 60.375 68.7344ZM64.0781 75V66.4375H65.3828V69.9688H67.7266C68.4557 69.9688 69.0547 70.0599 69.5234 70.2422C69.9974 70.4245 70.349 70.6953 70.5781 71.0547C70.8073 71.4141 70.9219 71.8594 70.9219 72.3906C70.9219 72.9219 70.8073 73.3828 70.5781 73.7734C70.3542 74.1641 70 74.4661 69.5156 74.6797C69.0365 74.8932 68.4115 75 67.6406 75H64.0781ZM65.3828 73.9453H67.5156C68.1615 73.9453 68.6771 73.8307 69.0625 73.6016C69.4479 73.3724 69.6406 72.9896 69.6406 72.4531C69.6406 71.9271 69.4609 71.5625 69.1016 71.3594C68.7422 71.151 68.2266 71.0469 67.5547 71.0469H65.3828V73.9453ZM72.3359 75V66.4375H73.6328V75H72.3359ZM77.6094 66.4375V71.8203C77.6094 71.9245 77.6068 72.0599 77.6016 72.2266C77.5964 72.388 77.5885 72.5625 77.5781 72.75C77.5677 72.9323 77.5573 73.1094 77.5469 73.2812C77.5417 73.4479 77.5339 73.5859 77.5234 73.6953L82.1953 66.4375H83.7891V75H82.5781V69.75C82.5781 69.5833 82.5807 69.3698 82.5859 69.1094C82.5911 68.849 82.599 68.5938 82.6094 68.3438C82.6198 68.0885 82.6276 67.8906 82.6328 67.75L77.9766 75H76.375V66.4375H77.6094ZM83.1484 62.9141C83.1016 63.4401 82.9688 63.8802 82.75 64.2344C82.5365 64.5885 82.2214 64.8568 81.8047 65.0391C81.388 65.2161 80.8542 65.3047 80.2031 65.3047C79.5312 65.3047 78.9896 65.2188 78.5781 65.0469C78.1719 64.8698 77.8698 64.6042 77.6719 64.25C77.4792 63.8958 77.3646 63.4505 77.3281 62.9141H78.5469C78.6042 63.487 78.7578 63.8776 79.0078 64.0859C79.2578 64.2943 79.6641 64.3984 80.2266 64.3984C80.7266 64.3984 81.1198 64.2891 81.4062 64.0703C81.6927 63.8516 81.8646 63.4661 81.9219 62.9141H83.1484ZM41 86.5859C41 87.1224 40.8438 87.5417 40.5312 87.8438C40.2188 88.1406 39.8151 88.3411 39.3203 88.4453V88.5078C39.8568 88.5807 40.3177 88.7734 40.7031 89.0859C41.0938 89.3932 41.2891 89.8646 41.2891 90.5C41.2891 90.9896 41.1719 91.4219 40.9375 91.7969C40.7031 92.1719 40.3359 92.4661 39.8359 92.6797C39.3359 92.8932 38.6849 93 37.8828 93H34.1953V84.4375H37.8516C38.4661 84.4375 39.0078 84.5078 39.4766 84.6484C39.9505 84.7839 40.3229 85.0078 40.5938 85.3203C40.8646 85.6328 41 86.0547 41 86.5859ZM39.9375 90.5C39.9375 89.9948 39.7448 89.6302 39.3594 89.4062C38.9792 89.1823 38.4245 89.0703 37.6953 89.0703H35.5V91.9453H37.7266C38.4453 91.9453 38.9922 91.8359 39.3672 91.6172C39.7474 91.3932 39.9375 91.0208 39.9375 90.5ZM39.6797 86.7344C39.6797 86.3281 39.5312 86.026 39.2344 85.8281C38.9375 85.625 38.4505 85.5234 37.7734 85.5234H35.5V87.9844H37.5469C38.25 87.9844 38.7812 87.8828 39.1406 87.6797C39.5 87.4766 39.6797 87.1615 39.6797 86.7344ZM45.5859 84.2812C46.2266 84.2812 46.7812 84.3698 47.25 84.5469C47.7188 84.7188 48.0807 84.9714 48.3359 85.3047C48.5911 85.638 48.7188 86.0443 48.7188 86.5234C48.7188 87.0391 48.5781 87.4505 48.2969 87.7578C48.0156 88.0651 47.6276 88.2865 47.1328 88.4219V88.4844C47.4818 88.5781 47.7969 88.7135 48.0781 88.8906C48.3646 89.0625 48.5911 89.2917 48.7578 89.5781C48.9297 89.8594 49.0156 90.2109 49.0156 90.6328C49.0156 91.112 48.8854 91.5443 48.625 91.9297C48.3646 92.3099 47.9688 92.6094 47.4375 92.8281C46.9062 93.0469 46.2344 93.1562 45.4219 93.1562C45.0208 93.1562 44.6406 93.1328 44.2812 93.0859C43.9219 93.0443 43.5964 92.9818 43.3047 92.8984C43.013 92.8151 42.7578 92.7161 42.5391 92.6016V91.4219C42.9036 91.599 43.3307 91.7552 43.8203 91.8906C44.3099 92.026 44.8385 92.0938 45.4062 92.0938C45.8438 92.0938 46.237 92.0443 46.5859 91.9453C46.9349 91.8411 47.2109 91.6771 47.4141 91.4531C47.6224 91.224 47.7266 90.9245 47.7266 90.5547C47.7266 90.2161 47.6354 89.9375 47.4531 89.7188C47.2708 89.4948 46.9974 89.3307 46.6328 89.2266C46.2734 89.1172 45.8177 89.0625 45.2656 89.0625H44.1172V88H45.0625C45.7969 88 46.3828 87.8958 46.8203 87.6875C47.2578 87.4792 47.4766 87.1276 47.4766 86.6328C47.4766 86.2057 47.3073 85.888 46.9688 85.6797C46.6302 85.4661 46.1458 85.3594 45.5156 85.3594C45.0469 85.3594 44.6328 85.4089 44.2734 85.5078C43.9141 85.6016 43.526 85.737 43.1094 85.9141L42.6484 84.875C43.0964 84.6771 43.5651 84.5286 44.0547 84.4297C44.5443 84.3307 45.0547 84.2812 45.5859 84.2812ZM52.4219 84.4375V88.0312H57.1953V84.4375H58.4922V93H57.1953V89.1328H52.4219V93H51.1172V84.4375H52.4219ZM68.625 88.7031C68.625 89.4062 68.5339 90.0339 68.3516 90.5859C68.1693 91.138 67.9062 91.6042 67.5625 91.9844C67.2188 92.3646 66.8021 92.6562 66.3125 92.8594C65.8281 93.0573 65.2786 93.1562 64.6641 93.1562C64.0911 93.1562 63.5651 93.0573 63.0859 92.8594C62.612 92.6562 62.2005 92.3646 61.8516 91.9844C61.5078 91.6042 61.2396 91.138 61.0469 90.5859C60.8594 90.0339 60.7656 89.4062 60.7656 88.7031C60.7656 87.7656 60.9245 86.9688 61.2422 86.3125C61.5599 85.651 62.013 85.1484 62.6016 84.8047C63.1953 84.4557 63.901 84.2812 64.7188 84.2812C65.5 84.2812 66.1823 84.4557 66.7656 84.8047C67.3542 85.1536 67.8099 85.6589 68.1328 86.3203C68.4609 86.9766 68.625 87.7708 68.625 88.7031ZM62.1094 88.7031C62.1094 89.3906 62.2005 89.987 62.3828 90.4922C62.5651 90.9974 62.8464 91.388 63.2266 91.6641C63.6068 91.9401 64.0964 92.0781 64.6953 92.0781C65.2891 92.0781 65.776 91.9401 66.1562 91.6641C66.5417 91.388 66.8255 90.9974 67.0078 90.4922C67.1901 89.987 67.2812 89.3906 67.2812 88.7031C67.2812 88.0208 67.1901 87.4323 67.0078 86.9375C66.8255 86.4375 66.5443 86.0521 66.1641 85.7812C65.7839 85.5104 65.2917 85.375 64.6875 85.375C63.7969 85.375 63.1432 85.6693 62.7266 86.2578C62.3151 86.8464 62.1094 87.6615 62.1094 88.7031ZM74.2969 93.1562C73.526 93.1562 72.8464 92.9974 72.2578 92.6797C71.6693 92.362 71.2109 91.8776 70.8828 91.2266C70.5547 90.5755 70.3906 89.7552 70.3906 88.7656C70.3906 87.7292 70.5625 86.8828 70.9062 86.2266C71.2552 85.5651 71.7344 85.0755 72.3438 84.7578C72.9531 84.4401 73.6458 84.2812 74.4219 84.2812C74.849 84.2812 75.2604 84.3255 75.6562 84.4141C76.0573 84.4974 76.3854 84.6042 76.6406 84.7344L76.25 85.8203C75.9896 85.7161 75.6875 85.6224 75.3438 85.5391C75.0052 85.4557 74.6875 85.4141 74.3906 85.4141C73.7969 85.4141 73.3021 85.5417 72.9062 85.7969C72.5156 86.0521 72.2214 86.4271 72.0234 86.9219C71.8307 87.4167 71.7344 88.026 71.7344 88.75C71.7344 89.4427 71.8281 90.0339 72.0156 90.5234C72.2083 91.013 72.4922 91.388 72.8672 91.6484C73.2474 91.9036 73.7214 92.0312 74.2891 92.0312C74.7422 92.0312 75.151 91.9844 75.5156 91.8906C75.8802 91.7917 76.2109 91.6771 76.5078 91.5469V92.7031C76.2214 92.849 75.901 92.9609 75.5469 93.0391C75.1979 93.1172 74.7812 93.1562 74.2969 93.1562Z" fill="#3C52E6"/>
<path d="M50.4676 53H46.9871V30.7422C46.9871 29.8971 46.9871 29.1738 46.9871 28.5723C47.0014 27.9564 47.0158 27.3978 47.0301 26.8965C47.0587 26.3809 47.0945 25.8581 47.1375 25.3281C46.6935 25.7865 46.2781 26.1803 45.8914 26.5098C45.5047 26.8249 45.0249 27.2188 44.452 27.6914L40.8641 30.5703L38.9949 28.1426L47.5027 21.5898H50.4676V53ZM78.7238 37.252C78.7238 39.8014 78.5305 42.0788 78.1438 44.084C77.757 46.0892 77.1483 47.7865 76.3176 49.1758C75.4869 50.5651 74.4126 51.625 73.0949 52.3555C71.7772 53.0716 70.1945 53.4297 68.3469 53.4297C66.0122 53.4297 64.0786 52.7923 62.5461 51.5176C61.0279 50.2428 59.8892 48.4023 59.1301 45.9961C58.3853 43.5755 58.0129 40.6608 58.0129 37.252C58.0129 33.9004 58.3495 31.0215 59.0227 28.6152C59.7102 26.1947 60.813 24.3398 62.3313 23.0508C63.8495 21.7474 65.8547 21.0957 68.3469 21.0957C70.7102 21.0957 72.6581 21.7402 74.1906 23.0293C75.7232 24.304 76.8619 26.1517 77.6066 28.5723C78.3514 30.9785 78.7238 33.8717 78.7238 37.252ZM61.6008 37.252C61.6008 40.1738 61.8228 42.6087 62.2668 44.5566C62.7108 46.5046 63.427 47.9655 64.4152 48.9395C65.4178 49.8991 66.7284 50.3789 68.3469 50.3789C69.9654 50.3789 71.2688 49.8991 72.257 48.9395C73.2596 47.9798 73.9829 46.526 74.427 44.5781C74.8853 42.6302 75.1145 40.1882 75.1145 37.252C75.1145 34.373 74.8924 31.9668 74.4484 30.0332C74.0044 28.0853 73.2883 26.6243 72.3 25.6504C71.3117 24.6621 69.994 24.168 68.3469 24.168C66.6997 24.168 65.382 24.6621 64.3938 25.6504C63.4055 26.6243 62.6893 28.0853 62.2453 30.0332C61.8156 31.9668 61.6008 34.373 61.6008 37.252Z" fill="#3C52E6"/>
</svg>
