<svg width="156" height="16" viewBox="0 0 156 16" fill="none" xmlns="http://www.w3.org/2000/svg">
<path d="M107.378 4.61096V8.84742H102.342V4.61096H99.7827V15.744H102.342V11.3105H107.378V15.744H109.937V4.61096H107.378Z" fill="white"/>
<path d="M121.074 4.61096H117.553H114.994H111.473V6.89667H114.994V15.744H117.553V6.89667H121.074V4.61096Z" fill="white"/>
<path d="M131.576 6.89667V4.61096H125.23H122.691V6.89667V9.02476V11.3302V13.4386V15.744H125.23H131.576V13.4386H125.23V11.3302H131.576V9.02476H125.23V6.89667H131.576Z" fill="white"/>
<path d="M144.126 4.61096H141.055L137.636 9.02476H136.551V4.61096H133.992V15.744H136.551V11.3302H137.636L141.055 15.744H144.126L139.806 10.1676L144.126 4.61096Z" fill="white"/>
<path d="M94.6031 4.61096L89.4236 11.9213V4.61096H86.8645V15.744H89.4236L94.6031 8.43363V15.744H97.1621V4.61096H94.6031Z" fill="white"/>
<path d="M149.879 4.21692C146.501 4.21692 143.757 6.85732 143.757 10.1086C143.757 13.3598 146.501 16.0002 149.879 16.0002C153.257 16.0002 156 13.3598 156 10.1086C156.02 6.87702 153.277 4.21692 149.879 4.21692ZM149.879 13.5765C147.893 13.5765 146.296 12.0396 146.296 10.1283C146.296 8.21693 147.893 6.67998 149.879 6.67998C151.864 6.67998 153.461 8.21693 153.461 10.1283C153.482 12.0396 151.864 13.5765 149.879 13.5765Z" fill="white"/>
<path d="M60.4346 15.7438L64.8976 10.5812L60.5983 4.6502H62.9322C64.0787 4.6502 63.9149 5.1034 65.9007 7.84232L66.5763 8.78814L69.2787 4.78813C69.3605 4.66991 69.5039 4.63049 69.6267 4.63049H71.0188L66.9653 9.32016L71.6535 15.7438H69.4629C68.0094 15.7635 68.2755 15.1921 66.3511 12.5714L65.2865 11.1133L62.1952 15.5665C62.1133 15.6847 61.9905 15.7241 61.8267 15.7241H60.4346V15.7438Z" fill="white"/>
<path d="M55.7464 15.9605C54.17 15.9605 52.5322 15.527 51.5086 14.3053C50.5464 13.1625 50.1983 11.7437 50.1574 10.3053C50.1369 8.51221 50.6078 7.07378 51.5904 5.99004C52.5731 4.90629 53.9243 4.37427 55.644 4.37427C56.4629 4.37427 57.1999 4.49249 57.8345 4.72895C58.4692 4.9654 58.9605 5.28068 59.3495 5.69447C59.7385 6.10826 60.0251 6.58117 60.2093 7.11319C60.3936 7.64521 60.496 8.23634 60.5164 8.86688C60.5164 9.20186 60.496 9.51713 60.4345 9.79299C60.4345 9.8324 60.3936 9.85211 60.3731 9.85211H53.1668C53.2078 11.6452 53.4944 12.926 54.0267 13.7339C54.559 14.5418 55.4393 14.9359 56.6881 14.9359C57.9778 14.9359 58.981 14.5812 59.9637 13.8521C60.1274 13.99 60.3117 14.3644 59.9637 14.66C59.0629 15.4482 57.3023 15.9605 55.7464 15.9605ZM53.1464 9.32009L57.8141 8.98511C57.8345 7.48757 57.7731 5.02451 55.7054 5.02451C53.5353 5.02451 53.2078 7.72403 53.1464 9.32009Z" fill="white"/>
<path d="M48.3559 14.4631V7.96061C48.3559 5.73401 47.4756 4.3941 45.2031 4.3941C43.6063 4.3941 42.0913 5.12317 41.0063 6.20691C41.0063 5.33991 40.863 4.63055 39.9827 4.63055H38.1401L38.2425 5.89164V14.4434L38.1401 15.7242H41.1291L41.0267 14.4434V6.79804C41.8866 6.1675 42.685 5.85223 43.8315 5.85223C45.285 5.85223 45.5716 7.15273 45.5716 8.59115V14.2266C45.5716 15.1724 45.7968 15.7242 46.6157 15.7242H48.4582L48.3559 14.4631Z" fill="white"/>
<path d="M35.2536 1.41872C35.2536 2.2069 34.578 2.83745 33.7591 2.83745C32.9402 2.83745 32.2646 2.2069 32.2646 1.41872C32.2646 0.630545 32.9402 0 33.7591 0C34.578 0 35.2536 0.630545 35.2536 1.41872Z" fill="white"/>
<path d="M32.3667 4.63048L32.4691 5.89157V14.4433L32.3667 15.7241H35.3557L35.2533 14.4433V6.10831C35.2533 5.26102 35.0895 4.61078 34.2092 4.61078H32.3667V4.63048Z" fill="white"/>
<path d="M29.5416 14.4631V7.96061C29.5416 5.7143 28.6613 4.3941 26.3889 4.3941C24.485 4.3941 23.1952 5.32021 22.1716 6.36455C21.8031 5.12317 20.9023 4.3941 19.1826 4.3941C17.5653 4.3941 16.255 5.12317 15.1905 6.22662V6.20691C15.1905 5.33991 15.0472 4.63055 14.1669 4.63055H12.3243L12.4267 5.89164V14.4434L12.3243 15.7242H15.3133L15.211 14.4434V6.79804C16.0503 6.12809 17.0535 5.85223 17.8519 5.85223C19.4283 5.85223 19.592 7.40888 19.592 8.59115V14.4434L19.4897 15.7242H22.4787L22.3763 14.4434V6.79804C23.0928 6.20691 24.096 5.85223 25.0377 5.85223C26.6755 5.85223 26.7779 7.56652 26.7779 8.59115V14.2266C26.7779 15.2907 27.085 15.7242 27.822 15.7242H29.6645L29.5416 14.4631Z" fill="white"/>
<path d="M4.77011 15.9607C3.39846 15.9607 1.37169 15.5863 0.143347 14.9163C0.368544 14.4237 0.798464 14.0493 1.41264 14.3646C2.51815 14.9163 3.62366 15.1725 4.852 15.1725C6.61263 15.1725 7.90239 14.2267 7.8205 12.5124C7.63625 8.92618 -0.0204314 8.39416 4.09808e-05 4.07889C0.0205134 0.906469 2.98901 6.10352e-05 5.83468 6.10352e-05C7.20633 6.10352e-05 8.55751 0.256224 9.88822 0.76854C9.66302 1.28086 9.27404 1.71435 8.59845 1.39908C7.65672 0.965581 6.71499 0.76854 5.71184 0.76854C3.97169 0.76854 2.98901 1.67494 2.98901 3.01485C2.96854 6.44342 10.7481 6.95574 10.8914 11.4089C10.9733 14.6602 8.14806 15.9607 4.77011 15.9607Z" fill="white"/>
<path d="M81.644 9.85229H74.9905V10.4237H81.644V9.85229Z" fill="white"/>
</svg>
